<?xml version="1.0" standalone="no"?><!DOCTYPE svg PUBLIC "-//W3C//DTD SVG 1.1//EN" "http://www.w3.org/Graphics/SVG/1.1/DTD/svg11.dtd"><svg t="1612343466322" class="icon" viewBox="0 0 1024 1024" version="1.1" xmlns="http://www.w3.org/2000/svg" p-id="7598" xmlns:xlink="http://www.w3.org/1999/xlink" width="16" height="16"><defs><style type="text/css"></style></defs><path d="M993.28 701.44c-10.24 0-25.6 10.24-25.6 25.6V921.6c0 30.72-20.48 51.2-51.2 51.2H102.4c-30.72 0-51.2-20.48-51.2-51.2v-194.56c0-15.36-10.24-25.6-25.6-25.6s-25.6 10.24-25.6 25.6V921.6c0 56.32 46.08 102.4 102.4 102.4h819.2c56.32 0 102.4-46.08 102.4-102.4v-194.56c0-15.36-15.36-25.6-30.72-25.6z" fill="#8a8a8a" p-id="7599"></path><path d="M465.92 798.72l10.24 10.24h10.24c10.24 0 20.48-5.12 25.6-15.36L916.48 460.8c15.36-5.12 15.36-25.6 5.12-35.84-5.12-15.36-25.6-15.36-35.84-5.12l-368.64 307.2V30.72c0-15.36-15.36-30.72-25.6-30.72s-25.6 15.36-25.6 30.72v691.2l-368.64-307.2c-10.24-10.24-25.6-5.12-35.84 5.12s-10.24 25.6 0 35.84l404.48 343.04z" fill="#8a8a8a" p-id="7600"></path></svg>