<?xml version="1.0" standalone="no"?><!DOCTYPE svg PUBLIC "-//W3C//DTD SVG 1.1//EN" "http://www.w3.org/Graphics/SVG/1.1/DTD/svg11.dtd"><svg t="1612019317245" class="icon" viewBox="0 0 1024 1024" version="1.1" xmlns="http://www.w3.org/2000/svg" p-id="1742" xmlns:xlink="http://www.w3.org/1999/xlink" width="200" height="200"><defs><style type="text/css"></style></defs><path d="M801.178 531.814l101.17-101.17a30.72 30.72 0 0 0-43.417-43.418L757.76 488.396l-101.222-101.17a30.72 30.72 0 0 0-43.418 43.417l101.171 101.171L613.12 633.037a30.72 30.72 0 1 0 43.418 43.417l101.222-101.17 101.171 101.17a30.72 30.72 0 0 0 43.418-43.417z m-264.141-312.78a78.746 78.746 0 0 0-78.131-3.584l-1.69 0.921-178.534 104.243h-78.336c-50.842 0-92.16 49.716-92.16 110.848v200.756c0 61.132 41.318 110.899 92.16 110.899h75.264a18.227 18.227 0 0 1 7.526 1.69l174.08 102.4 1.792 0.972a78.9 78.9 0 0 0 78.131-3.584c30.72-18.995 49.869-56.832 49.869-98.713V317.747c-0.102-41.881-19.251-79.718-49.971-98.713z m-11.571 526.899c0 24.832-11.162 40.499-20.48 46.438a17.306 17.306 0 0 1-17.51 1.331l-174.08-102.4-1.844-1.024a79.36 79.36 0 0 0-35.84-8.55h-75.366c-14.541 0-30.72-20.48-30.72-49.46V431.463c0-29.132 16.179-49.408 30.72-49.408h86.681a30.72 30.72 0 0 0 15.36-4.147L487.168 270.03a17.203 17.203 0 0 1 17.562 1.28c9.574 5.939 20.48 21.606 20.48 46.438z" p-id="1743"></path></svg>