<?xml version="1.0" standalone="no"?><!DOCTYPE svg PUBLIC "-//W3C//DTD SVG 1.1//EN" "http://www.w3.org/Graphics/SVG/1.1/DTD/svg11.dtd"><svg t="1612343261834" class="icon" viewBox="0 0 1024 1024" version="1.1" xmlns="http://www.w3.org/2000/svg" p-id="2130" width="16" height="16" xmlns:xlink="http://www.w3.org/1999/xlink"><defs><style type="text/css"></style></defs><path d="M512 256l38.4-38.4c83.2-89.6 221.866667-89.6 305.066667 0 83.2 89.6 83.2 232.533333 0 320l-305.066667 320c-10.666667 10.666667-25.6 17.066667-38.4 17.066667-12.8 0-27.733333-6.4-38.4-17.066667l-305.066667-320C85.333333 448 85.333333 305.066667 168.533333 215.466667c83.2-89.6 221.866667-89.6 305.066667 0L512 256z m296.533333 243.2c59.733333-66.133333 59.733333-168.533333 0-232.533333-29.866667-32-68.266667-49.066667-110.933333-49.066667s-81.066667 17.066667-110.933333 49.066667l-57.6 57.6c-10.666667 10.666667-25.6 10.666667-36.266667 0l-55.466667-59.733334c-29.866667-32-68.266667-49.066667-110.933333-49.066666s-81.066667 17.066667-110.933333 49.066666c-59.733333 66.133333-59.733333 168.533333 0 232.533334L512 810.666667l296.533333-311.466667z m8.533334 0" fill="" p-id="2131"></path></svg>