<?xml version="1.0" standalone="no"?><!DOCTYPE svg PUBLIC "-//W3C//DTD SVG 1.1//EN" "http://www.w3.org/Graphics/SVG/1.1/DTD/svg11.dtd"><svg t="1612343616792" class="icon" viewBox="0 0 1024 1024" version="1.1" xmlns="http://www.w3.org/2000/svg" p-id="14501" xmlns:xlink="http://www.w3.org/1999/xlink" width="16" height="16"><defs><style type="text/css"></style></defs><path d="M128 96h341.333a32 32 0 0 1 3.072 63.85l-3.072 0.15H160v704h704V554.667a32 32 0 0 1 63.85-3.072l0.15 3.072V896a32 32 0 0 1-28.928 31.85L896 928H128a32 32 0 0 1-31.85-28.928L96 896V128a32 32 0 0 1 28.928-31.85L128 96z m778.667-10.667a32 32 0 0 1 32 32v224a32 32 0 1 1-64 0V191.66l-276.843 258.41a32 32 0 0 1-42.88 0.704l-2.347-2.282a32 32 0 0 1-0.704-42.88l2.283-2.347 272.043-253.93H682.667a32 32 0 0 1 0-64h224z" fill="#8a8a8a" p-id="14502"></path></svg>