<?xml version="1.0" standalone="no"?><!DOCTYPE svg PUBLIC "-//W3C//DTD SVG 1.1//EN" "http://www.w3.org/Graphics/SVG/1.1/DTD/svg11.dtd"><svg t="1612019248290" class="icon" viewBox="0 0 1024 1024" version="1.1" xmlns="http://www.w3.org/2000/svg" p-id="4639" xmlns:xlink="http://www.w3.org/1999/xlink" width="200" height="200"><defs><style type="text/css"></style></defs><path d="M532.859259 176.355556c-20.859259-11.377778-45.511111-11.377778-66.37037 1.896296l-240.82963 151.703704H146.014815c-36.02963 0-64.474074 28.444444-64.474074 64.474074v235.14074c0 36.02963 28.444444 64.474074 64.474074 64.474074h79.644444l240.82963 151.703704c11.377778 7.585185 22.755556 9.481481 34.133333 9.481482 36.02963 0 64.474074-28.444444 64.474074-64.474074V233.244444c1.896296-22.755556-11.377778-45.511111-32.237037-56.888888z m-32.237037 610.607407l-246.518518-155.496296c-5.688889-3.792593-11.377778-5.688889-17.066667-5.688889H147.911111V396.325926h87.22963c5.688889 0 13.274074-1.896296 17.066666-5.688889l246.518519-155.496296v551.822222h1.896296zM788.859259 512c0-75.851852-39.822222-144.118519-104.296296-182.044444-15.17037-9.481481-36.02963-3.792593-45.511111 13.274074-9.481481 15.17037-3.792593 36.02963 13.274074 45.511111 68.266667 39.822222 91.022222 127.051852 53.096296 195.318518-13.274074 20.859259-30.340741 39.822222-53.096296 53.096297-17.066667 7.585185-22.755556 28.444444-13.274074 45.511111 7.585185 17.066667 28.444444 22.755556 45.511111 13.274074 0 0 1.896296 0 1.896296-1.896297 62.577778-37.925926 102.4-106.192593 102.4-182.044444z m-22.755555-303.407407c-15.17037-9.481481-36.02963-3.792593-45.511111 11.377777s-3.792593 36.02963 11.377777 45.511111c87.22963 51.2 142.222222 144.118519 142.222223 246.518519s-54.992593 195.318519-142.222223 246.518519c-15.17037 9.481481-22.755556 28.444444-13.274074 45.511111 9.481481 15.17037 28.444444 22.755556 45.511111 13.274074h1.896297c108.088889-62.577778 176.355556-178.251852 176.355555-303.407408 0-127.051852-66.37037-242.725926-176.355555-305.303703z" p-id="4640"></path></svg>